<?xml version="1.0" encoding="utf-8"?>
<!-- Generator: Adobe Illustrator 22.1.0, SVG Export Plug-In . SVG Version: 6.00 Build 0)  -->
<svg version="1.1" id="Layer_3" xmlns="http://www.w3.org/2000/svg" xmlns:xlink="http://www.w3.org/1999/xlink" x="0px" y="0px"
	 viewBox="0 0 452.3 369.9" style="enable-background:new 0 0 452.3 369.9;" xml:space="preserve">
<style type="text/css">
	.form{fill:#7D95C6;}
	.twothou{fill:white;stroke:white;stroke-width:0.2;stroke-miterlimit:10;}
	.EN{fill:white;}
	.INDY{fill:white;stroke:white;stroke-miterlimit:10;}
</style>
<g>
	<path class="form" d="M425.9,136.4V133v-1.5l0,0L325.4,20.6l0,0H324h-3.6H135.5v127.3h17.8L23.8,346.3l402.1-76.7l0,0V136.4z
		 M325.4,136.4h95.5v128.1H167.9V147.9h157.5V136.4 M162.9,142.9h-0.4 M320.4,142.9L320.4,142.9H167.9 M320.4,143.8 M325.4,131.4
		V28.5l93.4,102.9H325.4 M156.6,142.9h-16.1V25.6h179.9v117.3 M162.9,147.9v117.7l-126.2,70l122.6-187.7H162.9z M44,337.3
		l122.1-67.7h232.4L44,337.3z"/>
</g>
<g>
	<g>
		<g>
			<path class="twothou" d="M327.4,195l10.3-14.4c0.8-1.1,1.4-2,1.4-3c0-1.5-1.1-2.6-2.7-2.6c-1.8,0-2.8,1.2-2.8,3.4c0,0.1,0,0.2,0,0.2
				h-5.8c0-5.6,3.3-8.8,8.7-8.8c5.2,0,8.6,3.1,8.6,7.5c0,1.9-0.6,3.7-1.9,5.4l-5.5,7.4h7.2v5.6h-17.4V195z"/>
			<path class="twothou" d="M356.9,196.2c-5.3,0-8.4-3.1-8.4-8.4v-9.5c0-5.3,3.1-8.4,8.4-8.4c5.3,0,8.4,3.1,8.4,8.4v9.5
				C365.4,193.1,362.3,196.2,356.9,196.2z M354.3,187.5c0,2.3,1,3.6,2.6,3.6c1.6,0,2.6-1.3,2.6-3.6v-9c0-2.3-1-3.6-2.6-3.6
				c-1.6,0-2.6,1.3-2.6,3.6V187.5z"/>
			<path class="twothou" d="M376.1,178l-4.9,2.3v-5.5l10.2-4.9h0.5v25.9h-5.8V178z"/>
			<path class="twothou" d="M389.9,177.1c0-4.3,3.1-7.3,8.3-7.3c5.1,0,8.3,3.1,8.3,7.3c0,2.3-0.9,4.1-2.7,5.2c2.1,1.1,3.2,3.1,3.2,5.7
				c0,4.9-3.3,8.1-8.8,8.1c-5.5,0-8.8-3.2-8.8-8.1c0-2.7,1.1-4.7,3.2-5.7C390.8,181.3,389.9,179.5,389.9,177.1z M401.3,187.8
				c0-1.9-1.3-3.2-3.1-3.2c-1.8,0-3,1.3-3,3.3c0,2,1.2,3.2,3.1,3.2C400,191.2,401.3,189.8,401.3,187.8z M401.1,177.4
				c0-1.8-1.1-2.9-2.9-2.9c-1.8,0-3,1.2-3,2.9c0,1.8,1.3,3,3,3C400,180.4,401.1,179.2,401.1,177.4z"/>
		</g>
	</g>
	<path class="EN" d="M165.5,123.8l59,0v-18l-37.9,0.1V92.7l32.5,0V75.1h-32.5l0-10.3h37.8V46.9h-58.9V123.8z M294.6,123.9v-77
		h-20.5v21c0,6.3,0.1,16.5,0.7,19.9c-1.7-3.2-8.5-13.4-12-18.1l-16.9-22.8h-18.8v77h20.4v-23.5c0-6.3-0.1-16.5-0.7-19.9
		c2,3.4,8.6,13.3,12,18l18.4,25.4H294.6z"/>
	<g>
		<g>
			<path class="INDY" d="M186.7,159.6h9.5v37.3h-9.5V159.6z"/>
			<path class="INDY" d="M204.6,159.6h9.7l12,18.8c1.3,2,2.4,4.1,3.3,6.2c-0.6-2.6-0.9-5.2-0.9-7.7v-17.3h9.2v37.3h-9.2l-12.7-19
				c-0.9-1.3-2-3.3-3.2-5.9c0.7,2.1,1,4.4,1,6.9v18h-9.3V159.6z"/>
			<path class="INDY" d="M246.4,159.5h11.5c4.8,0,8.5,0.6,11.4,2.4c5.6,3.5,8.5,9.1,8.5,16.2c0,6.9-3,12.4-8.7,16.2
				c-2.4,1.6-6.2,2.5-11.2,2.5h-11.5V159.5z M258.5,189.3c6,0,9.7-4.3,9.7-11.1c0-7-3.7-11.1-10-11.1h-2.6v22.2H258.5z"/>
			<path class="INDY" d="M288.4,180.1l-11.8-20.5h10.5l4.8,10.2c0.3,0.6,0.7,1.6,1.2,2.8c0.4-1.3,0.8-2.2,1.1-2.8l4.8-10.2h10.5
				l-11.8,20.5v16.8h-9.4V180.1z"/>
			<path class="INDY" d="M195.5,213.2H207l12.8,37.3h-9.9l-1.5-5.4h-14.3l-1.5,5.4h-9.9L195.5,213.2z M206.3,238l-5-17.3l-5,17.3
				H206.3z"/>
			<path class="INDY" d="M219.1,213.2h9.5l4,20c0.1,0.5,0.4,2.6,0.9,6.2c0.1-2,0.4-4,0.8-6l4.2-20.3h9.8l4.2,20.3
				c0.4,2,0.6,3.9,0.8,6c0.5-3.6,0.8-5.7,0.9-6.2l4-20h9.5l-9.9,37.3h-9.2l-4.3-20.9c-0.2-0.8-0.5-2.8-0.9-6c-0.3,2.2-0.7,4.2-1,6
				l-4.1,20.9H229L219.1,213.2z"/>
			<path class="INDY" d="M279.8,213.2h11.6l12.8,37.3h-9.9l-1.5-5.4h-14.3l-1.5,5.4H267L279.8,213.2z M290.6,238l-5-17.3l-5,17.3
				H290.6z"/>
			<path class="INDY" d="M308.4,213.2h13.7c8.6,0,13.6,4.9,13.6,12c0,5.8-3.2,9.6-8.2,10l9.8,15.3H326l-8.1-15.9v15.9h-9.4V213.2z
				 M317.8,220.5v10.3h2.8c3.6,0,5.6-1.9,5.6-5.2c0-3.5-1.9-5.1-5.9-5.1H317.8z"/>
			<path class="INDY" d="M342.9,213.1h11.5c4.8,0,8.5,0.6,11.4,2.4c5.6,3.5,8.5,9.1,8.5,16.2c0,6.9-3,12.4-8.7,16.2
				c-2.4,1.6-6.2,2.5-11.2,2.5h-11.5V213.1z M355.1,242.9c6,0,9.7-4.3,9.7-11.1c0-7-3.7-11.1-10-11.1h-2.6v22.2H355.1z"/>
			<path class="INDY" d="M392.4,243.7c2.9,0,4.5-1.4,4.5-3.4c0-2.2-2.2-3.3-6.1-4.7c-2.4-0.9-5.1-1.6-7.6-3.5
				c-2.5-1.9-3.9-4.7-3.9-8.2c0-6.6,4.9-11.3,12.6-11.3c8.3,0,12.9,4,13,11.5h-8.5c0-2.8-1.7-4.4-4.3-4.4c-2.6,0-4.2,1.4-4.2,3.5
				c0,2.6,2.6,3.2,7.3,4.9c3,1.1,5.8,2,8.1,4.4c1.7,1.8,2.5,4,2.5,6.8c0,7.1-5.3,12-13.8,12c-7.9,0-12.8-4.4-13-11.6h8.6
				C387.9,242.1,389.6,243.7,392.4,243.7z"/>
		</g>
	</g>
</g>
</svg>
